<svg xmlns="http://www.w3.org/2000/svg" viewBox="0 0 64 64" shape-rendering="crispEdges"><title>referral_3_medium</title><rect x="3" y="3" width="58" height="58" fill="#080f21"/><rect x="5" y="5" width="54" height="54" fill="#526581"/><rect x="8" y="8" width="48" height="48" fill="#101d33"/><rect x="10" y="10" width="44" height="44" fill="#203350"/><path d="M10 10h44v3H10z M10 10h3v44h-3z" fill="#839cb6"/><path d="M10 51h44v3H10z M51 10h3v44h-3z" fill="#060b19"/><rect x="18" y="33" width="2" height="2" fill="#6e8cad"/><rect x="35" y="52" width="2" height="2" fill="#f8dfaa"/><rect x="52" y="23" width="2" height="2" fill="#6e8cad"/><rect x="21" y="42" width="2" height="2" fill="#f8dfaa"/><rect x="38" y="13" width="2" height="2" fill="#6e8cad"/><rect x="17" y="18" width="8" height="8" fill="#5ee3d3"/><rect x="15" y="28" width="12" height="15" fill="#8cd77a"/><rect x="30" y="21" width="8" height="8" fill="#8cd77a"/><rect x="28" y="31" width="12" height="15" fill="#5ee3d3"/><rect x="43" y="18" width="8" height="8" fill="#5ee3d3"/><rect x="41" y="28" width="12" height="15" fill="#8cd77a"/><path d="M13 46h38v5H13z" fill="#f3d5a2"/><rect x="8" y="8" width="7" height="3" fill="#f9d7a0"/><rect x="49" y="53" width="7" height="3" fill="#f9d7a0"/><rect x="4" y="4" width="5" height="5" fill="#8cd77a"/><rect x="55" y="55" width="5" height="5" fill="#5ee3d3"/></svg>